<?xml version="1.0"?>
<svg width="230" height="60" xmlns="http://www.w3.org/2000/svg" xmlns:svg="http://www.w3.org/2000/svg" preserveAspectRatio="xMidYMid meet" version="1.0">
 <metadata>Created by potrace 1.10, written by Peter Selinger 2001-2011</metadata>
 <g class="layer">
  <title>Layer 1</title>
  <g fill="#000000" id="svg_1" transform="translate(5 0) translate(-42 -7) matrix(0.0158705 0 0 -0.0158705 45.2686 297.637)">
   <path d="m6760,18183c-177,-28 -277,-75 -402,-193c-109,-102 -154,-175 -187,-307c-20,-77 -21,-107 -21,-622c0,-590 1,-607 60,-759c22,-59 47,-98 95,-154c78,-91 109,-112 246,-172c89,-38 121,-47 215,-57c146,-17 299,-2 369,36c27,14 54,25 61,25c29,0 169,98 213,148c64,74 148,224 163,291c20,88 14,1183 -7,1263c-13,53 -66,148 -136,243c-32,44 -207,176 -248,187c-20,6 -40,14 -46,18c-16,12 -114,37 -192,49c-70,11 -133,12 -183,4zm215,-447c54,-23 104,-65 131,-112l26,-43l9,-403c10,-445 1,-635 -31,-698c-31,-59 -79,-97 -146,-114c-133,-34 -246,-13 -311,57c-69,75 -68,63 -68,637l0,515l24,38c24,39 107,108 151,126c39,15 176,13 215,-3z" id="svg_2"/>
   <path d="m368,18160c-126,-3 -181,-9 -190,-18c-20,-20 -24,-2169 -5,-2196c13,-17 38,-18 443,-19c413,-1 431,0 475,20c26,12 62,24 80,28c19,3 76,27 127,53c84,42 101,56 173,139c85,98 120,162 152,283c19,69 20,113 24,572c3,325 1,515 -6,550c-38,189 -58,237 -141,341c-50,63 -82,91 -146,132c-18,11 -44,28 -58,39c-61,43 -181,67 -386,76c-203,9 -250,9 -542,0zm683,-451c30,-15 72,-46 93,-69c74,-82 71,-61 71,-585l0,-470l-29,-53c-16,-29 -53,-74 -81,-101c-56,-53 -45,-50 -228,-69c-94,-10 -254,1 -272,19c-7,7 -10,224 -10,668c0,533 3,661 13,674c17,20 79,25 252,19c122,-4 140,-7 191,-33z" id="svg_3"/>
   <path d="m2095,18146c-18,-13 -19,-48 -20,-1092c-1,-882 1,-1083 12,-1101l13,-23l625,0c619,0 624,0 635,21c17,31 9,371 -9,392c-12,15 -53,17 -408,17c-253,0 -401,4 -414,10c-18,10 -19,23 -19,223c0,168 3,217 14,233c13,18 30,19 223,22c123,2 212,7 218,13c6,6 10,87 10,205c0,162 -3,196 -15,204c-8,5 -107,10 -221,10c-146,0 -208,3 -217,12c-15,15 -17,410 -2,439c10,18 25,19 400,19c377,0 391,1 410,20c18,18 20,33 20,189c0,164 -1,170 -22,185c-20,14 -95,16 -618,16c-490,0 -600,-2 -615,-14z" id="svg_4"/>
   <path d="m3589,18148c-12,-5 -19,-17 -19,-32c0,-31 53,-243 79,-319c11,-32 25,-85 31,-118c6,-34 25,-113 42,-177c16,-65 34,-139 40,-167c16,-89 57,-248 82,-320c13,-38 29,-95 36,-125c47,-212 106,-436 131,-498c16,-41 29,-82 29,-93c0,-18 13,-70 63,-249c34,-125 28,-120 168,-120l120,0l15,36c8,20 29,79 45,132c17,54 50,149 73,212c24,63 60,169 81,235c71,229 77,247 121,340c35,74 45,62 107,-125c32,-94 61,-178 67,-188c8,-16 67,-200 113,-357c23,-79 105,-266 121,-277c19,-13 211,-9 229,5c31,23 66,141 173,572c13,55 40,147 59,204c19,58 35,116 35,130c0,13 6,47 14,75c23,81 100,408 111,471c4,21 13,52 21,67c13,24 70,247 110,423c9,39 22,93 29,120c8,28 17,69 21,92c6,40 5,42 -22,49c-36,10 -360,10 -396,1c-22,-6 -29,-16 -38,-50c-13,-54 -48,-179 -66,-237c-17,-55 -127,-485 -142,-556c-6,-28 -21,-76 -32,-107c-27,-72 -51,-77 -74,-14c-19,55 -41,130 -56,191c-6,27 -22,74 -35,105c-22,52 -48,144 -80,281c-7,30 -25,100 -40,155c-15,55 -33,121 -39,147c-6,25 -22,58 -35,72c-23,25 -30,26 -126,26c-116,0 -139,-12 -150,-77c-4,-21 -13,-58 -20,-83c-8,-25 -21,-76 -30,-113c-8,-37 -21,-80 -29,-95c-8,-15 -26,-70 -40,-122c-14,-52 -37,-135 -51,-185c-14,-49 -30,-111 -35,-137c-10,-56 -84,-218 -99,-218c-6,0 -14,12 -17,28c-27,116 -96,380 -112,428c-11,32 -28,93 -37,134c-9,41 -25,107 -36,145c-10,39 -28,113 -40,165c-12,52 -28,101 -35,109c-10,11 -55,14 -214,15c-111,1 -210,-2 -221,-6z" id="svg_5"/>
   <path d="m8050,18153c-41,-15 -40,7 -40,-1120c0,-1062 0,-1082 19,-1093c14,-7 270,-9 788,-8l768,3l3,185c1,102 0,195 -3,207l-5,23l-549,2c-447,2 -551,6 -564,17c-16,12 -17,87 -17,886c0,799 -1,874 -17,886c-12,11 -60,15 -192,16c-97,1 -183,0 -191,-4z" id="svg_6"/>
   <path d="m10046,18144c-14,-14 -16,-127 -16,-1099c0,-596 3,-1090 6,-1099c5,-14 33,-16 210,-16c191,0 204,1 214,19c6,13 10,169 10,440l0,420l22,15c19,13 58,16 228,16c147,0 209,3 218,12c14,14 17,384 4,405c-5,8 -72,12 -223,15c-165,2 -220,6 -232,17c-15,12 -17,40 -17,215c0,159 3,206 14,222c14,18 31,19 443,20c353,0 433,3 458,15l30,14l0,180l0,179l-25,13c-19,10 -171,13 -677,13c-579,0 -653,-2 -667,-16z" id="svg_7"/>
   <path d="m11828,18148c-8,-7 -18,-28 -22,-47c-8,-46 -8,-1940 0,-2056c4,-49 11,-96 17,-102c15,-20 1460,-19 1480,1c10,10 15,54 20,158c6,153 -2,235 -24,249c-8,5 -240,9 -517,9c-328,0 -510,4 -523,10c-18,10 -19,23 -19,229c0,198 2,219 18,234c16,15 47,17 219,17c174,0 202,2 214,17c11,12 15,63 17,202c3,167 2,187 -14,198c-13,10 -71,13 -219,13c-158,0 -205,3 -221,14c-18,13 -19,28 -19,219c0,158 3,208 14,220c12,15 61,17 522,17c448,0 509,2 523,16c13,13 16,45 16,194c0,167 -1,180 -19,190c-31,16 -1442,14 -1463,-2z" id="svg_8"/>
   <path d="m4916,15365c-97,-34 -131,-86 -131,-200c0,-111 12,-131 104,-177c41,-20 101,-42 132,-48c70,-15 105,-46 95,-85c-4,-17 -18,-31 -41,-41c-47,-19 -75,-18 -143,7c-94,35 -99,35 -132,-1c-57,-61 -30,-114 84,-164c108,-48 233,-31 325,43c53,43 71,82 71,156c0,88 -16,113 -113,179c-48,31 -101,62 -119,67c-18,5 -46,19 -62,32c-34,27 -31,47 9,73c23,15 32,16 73,5c99,-26 95,-26 135,22c20,25 37,49 37,54c0,16 -44,51 -90,72c-54,25 -174,28 -234,6z" id="svg_9"/>
   <path d="m8630,15353c-84,-37 -129,-94 -159,-203c-26,-96 -27,-185 -2,-271c35,-122 78,-176 176,-223c84,-39 162,-38 245,4c116,59 142,114 77,164c-39,30 -62,32 -107,10c-44,-23 -113,-29 -148,-15c-40,17 -68,59 -88,128c-22,81 -7,159 43,213c58,65 118,73 206,27c38,-20 39,-20 65,0c88,65 81,112 -23,156c-104,44 -199,47 -285,10z" id="svg_10"/>
   <path d="m10210,15371c-80,-17 -120,-54 -153,-139c-22,-55 -21,-107 2,-159c24,-52 70,-83 178,-118c125,-42 163,-90 106,-134c-43,-35 -66,-35 -144,-2c-41,17 -77,31 -81,31c-4,0 -23,-14 -43,-31c-48,-42 -47,-77 1,-117c81,-67 216,-91 306,-55c58,22 97,56 136,116c45,71 45,129 -1,189c-39,52 -121,109 -197,138c-94,36 -120,80 -71,117c22,17 43,16 105,-6c63,-22 83,-15 122,42c33,49 25,71 -35,102c-53,26 -169,40 -231,26z" id="svg_11"/>
   <path d="m3160,15350c-19,-19 -20,-33 -20,-348c0,-258 3,-332 13,-346c21,-28 95,-26 119,4c17,20 18,48 18,346c0,311 -1,325 -20,344c-12,12 -33,20 -55,20c-22,0 -43,-8 -55,-20z" id="svg_12"/>
   <path d="m5572,15354c-22,-15 -22,-15 -22,-349c0,-290 2,-336 16,-349c13,-14 48,-16 229,-16c202,0 215,1 225,19c13,25 13,92 0,125l-10,26l-134,0c-153,0 -166,6 -166,69c0,54 13,61 106,61c67,0 86,4 108,21c32,25 35,75 7,110c-17,21 -29,24 -108,28c-48,1 -94,8 -100,13c-17,13 -17,73 0,86c6,6 74,12 150,14c158,3 160,5 154,82c-7,75 -10,76 -237,76c-161,0 -199,-3 -218,-16z" id="svg_13"/>
   <path d="m6349,15354c-19,-23 -19,-685 0,-708c18,-21 49,-20 91,3c35,18 35,19 40,100c7,104 21,122 69,87c19,-14 53,-53 76,-88c66,-97 85,-112 141,-105c25,2 53,12 61,20c14,14 11,24 -31,101c-25,47 -46,95 -46,106c0,11 19,39 41,62c69,71 73,82 73,177c-1,135 -51,214 -153,245c-78,23 -343,23 -362,0zm306,-154c60,-23 67,-148 9,-170c-36,-14 -148,-12 -162,2c-18,18 -16,143 4,162c18,18 107,22 149,6z" id="svg_14"/>
   <path d="m7102,15358c-7,-7 -12,-20 -12,-30c0,-33 58,-194 109,-300c28,-59 51,-115 51,-124c0,-30 92,-225 114,-239c23,-17 93,-20 130,-5c27,10 46,44 90,160c60,160 100,258 121,300c13,25 33,75 44,111c34,108 26,139 -36,139c-82,0 -108,-27 -148,-159c-9,-29 -27,-70 -40,-91c-13,-20 -28,-55 -34,-76c-6,-21 -20,-54 -31,-72c-16,-26 -24,-31 -38,-23c-16,8 -97,180 -157,332c-18,46 -33,70 -51,78c-33,15 -97,14 -112,-1z" id="svg_15"/>
   <path d="m8047,15352c-15,-17 -17,-56 -17,-350c0,-321 1,-333 20,-352c17,-17 28,-19 58,-14c70,12 67,-2 67,370c0,321 -1,336 -19,350c-28,20 -89,18 -109,-4z" id="svg_16"/>
   <path d="m3582,15348c-16,-16 -16,-115 0,-124c6,-4 47,-10 90,-12c43,-3 82,-10 86,-16c4,-6 9,-135 12,-286l5,-275l57,-3c86,-5 86,-7 90,296c3,252 3,254 27,273c17,14 39,19 83,19c79,0 98,11 98,58c0,21 -7,48 -16,60c-15,22 -18,22 -268,22c-183,0 -255,-3 -264,-12z" id="svg_17"/>
   <path d="m9289,15333c-7,-18 -9,-138 -7,-341l3,-314l24,-19c21,-17 41,-19 221,-19c174,0 200,2 220,18c30,24 38,90 14,120c-18,21 -28,22 -150,25c-93,1 -136,6 -147,16c-20,16 -23,96 -4,108c6,4 54,10 106,13c76,5 96,9 107,25c19,25 18,75 -2,103c-14,20 -24,22 -103,22c-106,0 -124,10 -119,65c4,56 27,65 174,65c80,0 124,4 132,12c18,18 15,94 -4,112c-13,14 -49,16 -235,16l-219,0l-11,-27z" id="svg_18"/>
   <path d="m2343,15109c-41,-12 -74,-59 -80,-112c-7,-58 39,-123 93,-133c88,-16 154,35 154,120c0,92 -78,151 -167,125z" id="svg_19"/>
   <path d="m11206,15099c-59,-47 -72,-121 -31,-181c42,-62 137,-75 182,-25c46,50 55,100 29,162c-26,62 -126,87 -180,44z" id="svg_20"/>
   <path d="m409,15078c-26,-21 -49,-66 -49,-93c0,-34 42,-72 88,-80c20,-3 339,-4 709,-1c725,5 709,4 747,58c24,33 20,53 -18,92l-33,36l-715,0c-557,0 -718,-3 -729,-12z" id="svg_21"/>
   <path d="m11772,15068c-47,-51 -46,-98 4,-137c27,-21 28,-21 676,-21c550,0 653,2 677,15c52,26 57,91 12,136l-29,29l-659,0l-660,0l-21,-22z" id="svg_22"/>
  </g>
 </g>
</svg>