<?xml version="1.0" standalone="no"?>
<!DOCTYPE svg PUBLIC "-//W3C//DTD SVG 20010904//EN"
 "http://www.w3.org/TR/2001/REC-SVG-20010904/DTD/svg10.dtd">
<svg version="1.0" xmlns="http://www.w3.org/2000/svg"
 width="3600.000000pt" height="2025.000000pt" viewBox="0 0 3600.000000 2025.000000"
 preserveAspectRatio="xMidYMid meet">
<metadata>
Created by potrace 1.10, written by Peter Selinger 2001-2011
</metadata>
<g transform="translate(0.000000,2025.000000) scale(0.100000,-0.100000)"
fill="#000000" stroke="none">
<path d="M6760 18183 c-177 -28 -277 -75 -402 -193 -109 -102 -154 -175 -187
-307 -20 -77 -21 -107 -21 -622 0 -590 1 -607 60 -759 22 -59 47 -98 95 -154
78 -91 109 -112 246 -172 89 -38 121 -47 215 -57 146 -17 299 -2 369 36 27 14
54 25 61 25 29 0 169 98 213 148 64 74 148 224 163 291 20 88 14 1183 -7 1263
-13 53 -66 148 -136 243 -32 44 -207 176 -248 187 -20 6 -40 14 -46 18 -16 12
-114 37 -192 49 -70 11 -133 12 -183 4z m215 -447 c54 -23 104 -65 131 -112
l26 -43 9 -403 c10 -445 1 -635 -31 -698 -31 -59 -79 -97 -146 -114 -133 -34
-246 -13 -311 57 -69 75 -68 63 -68 637 l0 515 24 38 c24 39 107 108 151 126
39 15 176 13 215 -3z"/>
<path d="M368 18160 c-126 -3 -181 -9 -190 -18 -20 -20 -24 -2169 -5 -2196 13
-17 38 -18 443 -19 413 -1 431 0 475 20 26 12 62 24 80 28 19 3 76 27 127 53
84 42 101 56 173 139 85 98 120 162 152 283 19 69 20 113 24 572 3 325 1 515
-6 550 -38 189 -58 237 -141 341 -50 63 -82 91 -146 132 -18 11 -44 28 -58 39
-61 43 -181 67 -386 76 -203 9 -250 9 -542 0z m683 -451 c30 -15 72 -46 93
-69 74 -82 71 -61 71 -585 l0 -470 -29 -53 c-16 -29 -53 -74 -81 -101 -56 -53
-45 -50 -228 -69 -94 -10 -254 1 -272 19 -7 7 -10 224 -10 668 0 533 3 661 13
674 17 20 79 25 252 19 122 -4 140 -7 191 -33z"/>
<path d="M2095 18146 c-18 -13 -19 -48 -20 -1092 -1 -882 1 -1083 12 -1101
l13 -23 625 0 c619 0 624 0 635 21 17 31 9 371 -9 392 -12 15 -53 17 -408 17
-253 0 -401 4 -414 10 -18 10 -19 23 -19 223 0 168 3 217 14 233 13 18 30 19
223 22 123 2 212 7 218 13 6 6 10 87 10 205 0 162 -3 196 -15 204 -8 5 -107
10 -221 10 -146 0 -208 3 -217 12 -15 15 -17 410 -2 439 10 18 25 19 400 19
377 0 391 1 410 20 18 18 20 33 20 189 0 164 -1 170 -22 185 -20 14 -95 16
-618 16 -490 0 -600 -2 -615 -14z"/>
<path d="M3589 18148 c-12 -5 -19 -17 -19 -32 0 -31 53 -243 79 -319 11 -32
25 -85 31 -118 6 -34 25 -113 42 -177 16 -65 34 -139 40 -167 16 -89 57 -248
82 -320 13 -38 29 -95 36 -125 47 -212 106 -436 131 -498 16 -41 29 -82 29
-93 0 -18 13 -70 63 -249 34 -125 28 -120 168 -120 l120 0 15 36 c8 20 29 79
45 132 17 54 50 149 73 212 24 63 60 169 81 235 71 229 77 247 121 340 35 74
45 62 107 -125 32 -94 61 -178 67 -188 8 -16 67 -200 113 -357 23 -79 105
-266 121 -277 19 -13 211 -9 229 5 31 23 66 141 173 572 13 55 40 147 59 204
19 58 35 116 35 130 0 13 6 47 14 75 23 81 100 408 111 471 4 21 13 52 21 67
13 24 70 247 110 423 9 39 22 93 29 120 8 28 17 69 21 92 6 40 5 42 -22 49
-36 10 -360 10 -396 1 -22 -6 -29 -16 -38 -50 -13 -54 -48 -179 -66 -237 -17
-55 -127 -485 -142 -556 -6 -28 -21 -76 -32 -107 -27 -72 -51 -77 -74 -14 -19
55 -41 130 -56 191 -6 27 -22 74 -35 105 -22 52 -48 144 -80 281 -7 30 -25
100 -40 155 -15 55 -33 121 -39 147 -6 25 -22 58 -35 72 -23 25 -30 26 -126
26 -116 0 -139 -12 -150 -77 -4 -21 -13 -58 -20 -83 -8 -25 -21 -76 -30 -113
-8 -37 -21 -80 -29 -95 -8 -15 -26 -70 -40 -122 -14 -52 -37 -135 -51 -185
-14 -49 -30 -111 -35 -137 -10 -56 -84 -218 -99 -218 -6 0 -14 12 -17 28 -27
116 -96 380 -112 428 -11 32 -28 93 -37 134 -9 41 -25 107 -36 145 -10 39 -28
113 -40 165 -12 52 -28 101 -35 109 -10 11 -55 14 -214 15 -111 1 -210 -2
-221 -6z"/>
<path d="M8050 18153 c-41 -15 -40 7 -40 -1120 0 -1062 0 -1082 19 -1093 14
-7 270 -9 788 -8 l768 3 3 185 c1 102 0 195 -3 207 l-5 23 -549 2 c-447 2
-551 6 -564 17 -16 12 -17 87 -17 886 0 799 -1 874 -17 886 -12 11 -60 15
-192 16 -97 1 -183 0 -191 -4z"/>
<path d="M10046 18144 c-14 -14 -16 -127 -16 -1099 0 -596 3 -1090 6 -1099 5
-14 33 -16 210 -16 191 0 204 1 214 19 6 13 10 169 10 440 l0 420 22 15 c19
13 58 16 228 16 147 0 209 3 218 12 14 14 17 384 4 405 -5 8 -72 12 -223 15
-165 2 -220 6 -232 17 -15 12 -17 40 -17 215 0 159 3 206 14 222 14 18 31 19
443 20 353 0 433 3 458 15 l30 14 0 180 0 179 -25 13 c-19 10 -171 13 -677 13
-579 0 -653 -2 -667 -16z"/>
<path d="M11828 18148 c-8 -7 -18 -28 -22 -47 -8 -46 -8 -1940 0 -2056 4 -49
11 -96 17 -102 15 -20 1460 -19 1480 1 10 10 15 54 20 158 6 153 -2 235 -24
249 -8 5 -240 9 -517 9 -328 0 -510 4 -523 10 -18 10 -19 23 -19 229 0 198 2
219 18 234 16 15 47 17 219 17 174 0 202 2 214 17 11 12 15 63 17 202 3 167 2
187 -14 198 -13 10 -71 13 -219 13 -158 0 -205 3 -221 14 -18 13 -19 28 -19
219 0 158 3 208 14 220 12 15 61 17 522 17 448 0 509 2 523 16 13 13 16 45 16
194 0 167 -1 180 -19 190 -31 16 -1442 14 -1463 -2z"/>
<path d="M4916 15365 c-97 -34 -131 -86 -131 -200 0 -111 12 -131 104 -177 41
-20 101 -42 132 -48 70 -15 105 -46 95 -85 -4 -17 -18 -31 -41 -41 -47 -19
-75 -18 -143 7 -94 35 -99 35 -132 -1 -57 -61 -30 -114 84 -164 108 -48 233
-31 325 43 53 43 71 82 71 156 0 88 -16 113 -113 179 -48 31 -101 62 -119 67
-18 5 -46 19 -62 32 -34 27 -31 47 9 73 23 15 32 16 73 5 99 -26 95 -26 135
22 20 25 37 49 37 54 0 16 -44 51 -90 72 -54 25 -174 28 -234 6z"/>
<path d="M8630 15353 c-84 -37 -129 -94 -159 -203 -26 -96 -27 -185 -2 -271
35 -122 78 -176 176 -223 84 -39 162 -38 245 4 116 59 142 114 77 164 -39 30
-62 32 -107 10 -44 -23 -113 -29 -148 -15 -40 17 -68 59 -88 128 -22 81 -7
159 43 213 58 65 118 73 206 27 38 -20 39 -20 65 0 88 65 81 112 -23 156 -104
44 -199 47 -285 10z"/>
<path d="M10210 15371 c-80 -17 -120 -54 -153 -139 -22 -55 -21 -107 2 -159
24 -52 70 -83 178 -118 125 -42 163 -90 106 -134 -43 -35 -66 -35 -144 -2 -41
17 -77 31 -81 31 -4 0 -23 -14 -43 -31 -48 -42 -47 -77 1 -117 81 -67 216 -91
306 -55 58 22 97 56 136 116 45 71 45 129 -1 189 -39 52 -121 109 -197 138
-94 36 -120 80 -71 117 22 17 43 16 105 -6 63 -22 83 -15 122 42 33 49 25 71
-35 102 -53 26 -169 40 -231 26z"/>
<path d="M3160 15350 c-19 -19 -20 -33 -20 -348 0 -258 3 -332 13 -346 21 -28
95 -26 119 4 17 20 18 48 18 346 0 311 -1 325 -20 344 -12 12 -33 20 -55 20
-22 0 -43 -8 -55 -20z"/>
<path d="M5572 15354 c-22 -15 -22 -15 -22 -349 0 -290 2 -336 16 -349 13 -14
48 -16 229 -16 202 0 215 1 225 19 13 25 13 92 0 125 l-10 26 -134 0 c-153 0
-166 6 -166 69 0 54 13 61 106 61 67 0 86 4 108 21 32 25 35 75 7 110 -17 21
-29 24 -108 28 -48 1 -94 8 -100 13 -17 13 -17 73 0 86 6 6 74 12 150 14 158
3 160 5 154 82 -7 75 -10 76 -237 76 -161 0 -199 -3 -218 -16z"/>
<path d="M6349 15354 c-19 -23 -19 -685 0 -708 18 -21 49 -20 91 3 35 18 35
19 40 100 7 104 21 122 69 87 19 -14 53 -53 76 -88 66 -97 85 -112 141 -105
25 2 53 12 61 20 14 14 11 24 -31 101 -25 47 -46 95 -46 106 0 11 19 39 41 62
69 71 73 82 73 177 -1 135 -51 214 -153 245 -78 23 -343 23 -362 0z m306 -154
c60 -23 67 -148 9 -170 -36 -14 -148 -12 -162 2 -18 18 -16 143 4 162 18 18
107 22 149 6z"/>
<path d="M7102 15358 c-7 -7 -12 -20 -12 -30 0 -33 58 -194 109 -300 28 -59
51 -115 51 -124 0 -30 92 -225 114 -239 23 -17 93 -20 130 -5 27 10 46 44 90
160 60 160 100 258 121 300 13 25 33 75 44 111 34 108 26 139 -36 139 -82 0
-108 -27 -148 -159 -9 -29 -27 -70 -40 -91 -13 -20 -28 -55 -34 -76 -6 -21
-20 -54 -31 -72 -16 -26 -24 -31 -38 -23 -16 8 -97 180 -157 332 -18 46 -33
70 -51 78 -33 15 -97 14 -112 -1z"/>
<path d="M8047 15352 c-15 -17 -17 -56 -17 -350 0 -321 1 -333 20 -352 17 -17
28 -19 58 -14 70 12 67 -2 67 370 0 321 -1 336 -19 350 -28 20 -89 18 -109 -4z"/>
<path d="M3582 15348 c-16 -16 -16 -115 0 -124 6 -4 47 -10 90 -12 43 -3 82
-10 86 -16 4 -6 9 -135 12 -286 l5 -275 57 -3 c86 -5 86 -7 90 296 3 252 3
254 27 273 17 14 39 19 83 19 79 0 98 11 98 58 0 21 -7 48 -16 60 -15 22 -18
22 -268 22 -183 0 -255 -3 -264 -12z"/>
<path d="M9289 15333 c-7 -18 -9 -138 -7 -341 l3 -314 24 -19 c21 -17 41 -19
221 -19 174 0 200 2 220 18 30 24 38 90 14 120 -18 21 -28 22 -150 25 -93 1
-136 6 -147 16 -20 16 -23 96 -4 108 6 4 54 10 106 13 76 5 96 9 107 25 19 25
18 75 -2 103 -14 20 -24 22 -103 22 -106 0 -124 10 -119 65 4 56 27 65 174 65
80 0 124 4 132 12 18 18 15 94 -4 112 -13 14 -49 16 -235 16 l-219 0 -11 -27z"/>
<path d="M2343 15109 c-41 -12 -74 -59 -80 -112 -7 -58 39 -123 93 -133 88
-16 154 35 154 120 0 92 -78 151 -167 125z"/>
<path d="M11206 15099 c-59 -47 -72 -121 -31 -181 42 -62 137 -75 182 -25 46
50 55 100 29 162 -26 62 -126 87 -180 44z"/>
<path d="M409 15078 c-26 -21 -49 -66 -49 -93 0 -34 42 -72 88 -80 20 -3 339
-4 709 -1 725 5 709 4 747 58 24 33 20 53 -18 92 l-33 36 -715 0 c-557 0 -718
-3 -729 -12z"/>
<path d="M11772 15068 c-47 -51 -46 -98 4 -137 27 -21 28 -21 676 -21 550 0
653 2 677 15 52 26 57 91 12 136 l-29 29 -659 0 -660 0 -21 -22z"/>
</g>
</svg>
